#Comment line ignore any data following # character 
#Hierarchical Translation and Rotation (.htr) file 
[Header]	
#Header keywords are followed by a single value 
FileType HTR		#Single word string
DataType HTRS		#Translation followed by rotation and scale data
FileVersion 1		#integer
NumSegments 84		#integer
NumFrames 2		#integer
DataFrameRate 30		#integer, data frame rate in this file
EulerRotationOrder ZYX
CalibrationUnits mm
RotationUnits Degrees
GlobalAxisofGravity Y
BoneLengthAxis Y
ScaleFactor 1.00
[SegmentNames&Hierarchy]
#CHILD	PARENT
MASTER GLOBAL
root MASTER
chest root
L_mid_tent01 root
R_mid_tent01 root
spine01 root
Bip01_Neck chest
L_humerus chest
R_humerus chest
weapon_bone chest
Bip01_Head Bip01_Neck
eye_left_bone Bip01_Head
eye_right_bone Bip01_Head
L_forearm L_humerus
L_front_hand L_forearm
L_weapon_bone L_forearm
L_front_hand01_01 L_front_hand
L_front_hand02_01 L_front_hand
L_front_hand03_01 L_front_hand
L_front_hand01_02 L_front_hand01_01
L_front_hand02_02 L_front_hand02_01
L_front_hand03_02 L_front_hand03_01
R_forearm R_humerus
R_front_hand R_forearm
R_weapon_bone R_forearm
R_front_hand01_01 R_front_hand
R_front_hand02_01 R_front_hand
R_front_hand03_01 R_front_hand
R_front_hand01_02 R_front_hand01_01
R_front_hand02_02 R_front_hand02_01
R_front_hand03_02 R_front_hand03_01
null_rope01_connect L_mid_tent01
Rope1_Seg01 null_rope01_connect
Rope1_Seg02 Rope1_Seg01
Rope1_Seg03 Rope1_Seg02
Rope1_Seg04 Rope1_Seg03
Rope1_Seg05 Rope1_Seg04
Rope1_Seg06 Rope1_Seg05
Rope1_Seg07 Rope1_Seg06
Rope1_Seg09 Rope1_Seg07
L_mid_hand01 Rope1_Seg09
L_mid_hand02 Rope1_Seg09
L_mid_hand03 Rope1_Seg09
null_rope02_connect R_mid_tent01
Rope2_Seg01 null_rope02_connect
Rope2_Seg02 Rope2_Seg01
Rope2_Seg03 Rope2_Seg02
Rope2_Seg04 Rope2_Seg03
Rope2_Seg05 Rope2_Seg04
Rope2_Seg06 Rope2_Seg05
Rope2_Seg07 Rope2_Seg06
Rope2_Seg09 Rope2_Seg07
R_mid_hand01 Rope2_Seg09
R_mid_hand02 Rope2_Seg09
R_mid_hand03 Rope2_Seg09
spine02 spine01
spine03 spine02
pelvis spine03
null_rope03_connect pelvis
null_rope04_connect pelvis
Rope3_Seg01 null_rope03_connect
Rope3_Seg02 Rope3_Seg01
Rope3_Seg03 Rope3_Seg02
Rope3_Seg04 Rope3_Seg03
Rope3_Seg05 Rope3_Seg04
Rope3_Seg06 Rope3_Seg05
Rope3_Seg07 Rope3_Seg06
Rope3_Seg08 Rope3_Seg07
Rope3_Seg09 Rope3_Seg08
R_rear_hand01 Rope3_Seg09
R_rear_hand02 Rope3_Seg09
R_rear_hand03 Rope3_Seg09
Rope4_Seg01 null_rope04_connect
Rope4_Seg02 Rope4_Seg01
Rope4_Seg03 Rope4_Seg02
Rope4_Seg04 Rope4_Seg03
Rope4_Seg05 Rope4_Seg04
Rope4_Seg06 Rope4_Seg05
Rope4_Seg07 Rope4_Seg06
Rope4_Seg08 Rope4_Seg07
Rope4_Seg09 Rope4_Seg08
L_rear_hand01 Rope4_Seg09
L_rear_hand02 Rope4_Seg09
L_rear_hand03 Rope4_Seg09
[BasePosition]
#SegmentName Tx, Ty, Tz, Rx, Ry, Rz, BoneLength
MASTER 0.000000 0.000000 0.000000 -90.000000 0.000000 0.000000 10.000000 
root 0.000000 0.000000 0.000000 0.000000 0.000000 0.000000 10.000000 
chest 0.000000 0.000000 0.000000 0.000000 0.000000 0.000000 10.000000 
L_mid_tent01 0.000000 0.000000 0.000000 0.000000 0.000000 0.000000 10.000000 
R_mid_tent01 0.000000 0.000000 0.000000 0.000000 0.000000 0.000000 10.000000 
spine01 0.000000 0.000000 0.000000 0.000000 0.000000 0.000000 10.000000 
Bip01_Neck 0.000000 0.000000 0.000000 0.000000 0.000000 0.000000 10.000000 
L_humerus 0.000000 0.000000 0.000000 0.000000 0.000000 0.000000 10.000000 
R_humerus 0.000000 0.000000 0.000000 0.000000 0.000000 0.000000 10.000000 
weapon_bone 0.000000 0.000000 0.000000 0.000000 0.000000 0.000000 10.000000 
Bip01_Head 0.000000 0.000000 0.000000 0.000000 0.000000 0.000000 10.000000 
eye_left_bone 0.000000 0.000000 0.000000 0.000000 0.000000 0.000000 10.000000 
eye_right_bone 0.000000 0.000000 0.000000 0.000000 0.000000 0.000000 10.000000 
L_forearm 0.000000 0.000000 0.000000 0.000000 0.000000 0.000000 10.000000 
L_front_hand 0.000000 0.000000 0.000000 0.000000 0.000000 0.000000 10.000000 
L_weapon_bone 0.000000 0.000000 0.000000 0.000000 0.000000 0.000000 10.000000 
L_front_hand01_01 0.000000 0.000000 0.000000 0.000000 0.000000 0.000000 10.000000 
L_front_hand02_01 0.000000 0.000000 0.000000 0.000000 0.000000 0.000000 10.000000 
L_front_hand03_01 0.000000 0.000000 0.000000 0.000000 0.000000 0.000000 10.000000 
L_front_hand01_02 0.000000 0.000000 0.000000 0.000000 0.000000 0.000000 10.000000 
L_front_hand02_02 0.000000 0.000000 0.000000 0.000000 0.000000 0.000000 10.000000 
L_front_hand03_02 0.000000 0.000000 0.000000 0.000000 0.000000 0.000000 10.000000 
R_forearm 0.000000 0.000000 0.000000 0.000000 0.000000 0.000000 10.000000 
R_front_hand 0.000000 0.000000 0.000000 0.000000 0.000000 0.000000 10.000000 
R_weapon_bone 0.000000 0.000000 0.000000 0.000000 0.000000 0.000000 10.000000 
R_front_hand01_01 0.000000 0.000000 0.000000 0.000000 0.000000 0.000000 10.000000 
R_front_hand02_01 0.000000 0.000000 0.000000 0.000000 0.000000 0.000000 10.000000 
R_front_hand03_01 0.000000 0.000000 0.000000 0.000000 0.000000 0.000000 10.000000 
R_front_hand01_02 0.000000 0.000000 0.000000 0.000000 0.000000 0.000000 10.000000 
R_front_hand02_02 0.000000 0.000000 0.000000 0.000000 0.000000 0.000000 10.000000 
R_front_hand03_02 0.000000 0.000000 0.000000 0.000000 0.000000 0.000000 10.000000 
null_rope01_connect 0.000000 0.000000 0.000000 0.000000 0.000000 0.000000 10.000000 
Rope1_Seg01 0.000000 0.000000 0.000000 0.000000 0.000000 0.000000 10.000000 
Rope1_Seg02 0.000000 0.000000 0.000000 0.000000 0.000000 0.000000 10.000000 
Rope1_Seg03 0.000000 0.000000 0.000000 0.000000 0.000000 0.000000 10.000000 
Rope1_Seg04 0.000000 0.000000 0.000000 0.000000 0.000000 0.000000 10.000000 
Rope1_Seg05 0.000000 0.000000 0.000000 0.000000 0.000000 0.000000 10.000000 
Rope1_Seg06 0.000000 0.000000 0.000000 0.000000 0.000000 0.000000 10.000000 
Rope1_Seg07 0.000000 0.000000 0.000000 0.000000 0.000000 0.000000 10.000000 
Rope1_Seg09 0.000000 0.000000 0.000000 0.000000 0.000000 0.000000 10.000000 
L_mid_hand01 0.000000 0.000000 0.000000 0.000000 0.000000 0.000000 10.000000 
L_mid_hand02 0.000000 0.000000 0.000000 0.000000 0.000000 0.000000 10.000000 
L_mid_hand03 0.000000 0.000000 0.000000 0.000000 0.000000 0.000000 10.000000 
null_rope02_connect 0.000000 0.000000 0.000000 0.000000 0.000000 0.000000 10.000000 
Rope2_Seg01 0.000000 0.000000 0.000000 0.000000 0.000000 0.000000 10.000000 
Rope2_Seg02 0.000000 0.000000 0.000000 0.000000 0.000000 0.000000 10.000000 
Rope2_Seg03 0.000000 0.000000 0.000000 0.000000 0.000000 0.000000 10.000000 
Rope2_Seg04 0.000000 0.000000 0.000000 0.000000 0.000000 0.000000 10.000000 
Rope2_Seg05 0.000000 0.000000 0.000000 0.000000 0.000000 0.000000 10.000000 
Rope2_Seg06 0.000000 0.000000 0.000000 0.000000 0.000000 0.000000 10.000000 
Rope2_Seg07 0.000000 0.000000 0.000000 0.000000 0.000000 0.000000 10.000000 
Rope2_Seg09 0.000000 0.000000 0.000000 0.000000 0.000000 0.000000 10.000000 
R_mid_hand01 0.000000 0.000000 0.000000 0.000000 0.000000 0.000000 10.000000 
R_mid_hand02 0.000000 0.000000 0.000000 0.000000 0.000000 0.000000 10.000000 
R_mid_hand03 0.000000 0.000000 0.000000 0.000000 0.000000 0.000000 10.000000 
spine02 0.000000 0.000000 0.000000 0.000000 0.000000 0.000000 10.000000 
spine03 0.000000 0.000000 0.000000 0.000000 0.000000 0.000000 10.000000 
pelvis 0.000000 0.000000 0.000000 0.000000 0.000000 0.000000 10.000000 
null_rope03_connect 0.000000 0.000000 0.000000 0.000000 0.000000 0.000000 10.000000 
null_rope04_connect 0.000000 0.000000 0.000000 0.000000 0.000000 0.000000 10.000000 
Rope3_Seg01 0.000000 0.000000 0.000000 0.000000 0.000000 0.000000 10.000000 
Rope3_Seg02 0.000000 0.000000 0.000000 0.000000 0.000000 0.000000 10.000000 
Rope3_Seg03 0.000000 0.000000 0.000000 0.000000 0.000000 0.000000 10.000000 
Rope3_Seg04 0.000000 0.000000 0.000000 0.000000 0.000000 0.000000 10.000000 
Rope3_Seg05 0.000000 0.000000 0.000000 0.000000 0.000000 0.000000 10.000000 
Rope3_Seg06 0.000000 0.000000 0.000000 0.000000 0.000000 0.000000 10.000000 
Rope3_Seg07 0.000000 0.000000 0.000000 0.000000 0.000000 0.000000 10.000000 
Rope3_Seg08 0.000000 0.000000 0.000000 0.000000 0.000000 0.000000 10.000000 
Rope3_Seg09 0.000000 0.000000 0.000000 0.000000 0.000000 0.000000 10.000000 
R_rear_hand01 0.000000 0.000000 0.000000 0.000000 0.000000 0.000000 10.000000 
R_rear_hand02 0.000000 0.000000 0.000000 0.000000 0.000000 0.000000 10.000000 
R_rear_hand03 0.000000 0.000000 0.000000 0.000000 0.000000 0.000000 10.000000 
Rope4_Seg01 0.000000 0.000000 0.000000 0.000000 0.000000 0.000000 10.000000 
Rope4_Seg02 0.000000 0.000000 0.000000 0.000000 0.000000 0.000000 10.000000 
Rope4_Seg03 0.000000 0.000000 0.000000 0.000000 0.000000 0.000000 10.000000 
Rope4_Seg04 0.000000 0.000000 0.000000 0.000000 0.000000 0.000000 10.000000 
Rope4_Seg05 0.000000 0.000000 0.000000 0.000000 0.000000 0.000000 10.000000 
Rope4_Seg06 0.000000 0.000000 0.000000 0.000000 0.000000 0.000000 10.000000 
Rope4_Seg07 0.000000 0.000000 0.000000 0.000000 0.000000 0.000000 10.000000 
Rope4_Seg08 0.000000 0.000000 0.000000 0.000000 0.000000 0.000000 10.000000 
Rope4_Seg09 0.000000 0.000000 0.000000 0.000000 0.000000 0.000000 10.000000 
L_rear_hand01 0.000000 0.000000 0.000000 0.000000 0.000000 0.000000 10.000000 
L_rear_hand02 0.000000 0.000000 0.000000 0.000000 0.000000 0.000000 10.000000 
L_rear_hand03 0.000000 0.000000 0.000000 0.000000 0.000000 0.000000 10.000000 
#Beginning of Data. Separated by tabs
#Fr	Tx	Ty	Tz	Rx	Ry	Rz	SF
[MASTER]
6 -0.000172 1155.830322 288.980530 0.001660 0.001660 0.001660 1191.408203
7 -0.000198 1328.738892 596.213013 0.001660 0.001660 0.001660 1456.371216
[root]
6 -16.502291 -62.822109 1500.000000 -91.443108 -4.907892 -90.783264 1501.405640
7 -15.226087 -69.820641 1497.771240 -91.859322 -6.285995 -91.122536 1499.475098
[chest]
6 -84.512650 -34.090519 0.000000 -2.019906 0.602782 171.823990 91.129311
7 -84.512650 -34.090519 0.000000 -1.652630 0.612525 172.768127 91.129311
[L_mid_tent01]
6 27.299076 22.179161 -249.918701 -1.379268 36.511192 66.497536 252.381683
7 27.299078 22.179171 -249.918701 -0.293353 25.759521 68.389473 252.381683
[R_mid_tent01]
6 23.228794 24.509907 226.238495 173.895706 -30.891880 58.389252 228.744751
7 23.228794 24.509907 226.238495 170.230606 -23.707077 67.421585 228.744751
[spine01]
6 -0.361383 -0.195265 0.000000 0.001953 0.001302 22.618982 0.410763
7 -0.361383 -0.195265 0.000000 0.001954 0.001301 22.702204 0.410763
[Bip01_Neck]
6 165.484543 71.581718 0.000119 176.643677 -1.657967 43.431915 180.302734
7 165.484543 71.581718 0.000119 176.643677 -1.657967 43.431911 180.302734
[L_humerus]
6 -13.983130 -135.272980 -120.471481 156.317398 70.210068 -112.010254 181.680161
7 -13.983130 -135.272980 -120.471481 156.334518 69.086914 -111.969147 181.680161
[R_humerus]
6 -13.983309 -135.273102 125.287651 -172.382263 -66.903831 -92.553993 184.909012
7 -13.983309 -135.273102 125.287651 -171.573792 -64.932899 -93.398331 184.909012
[weapon_bone]
6 235.964890 -300.705902 0.000000 0.000000 -89.951546 -128.212341 382.234833
7 235.964890 -300.705902 0.000000 0.000000 -89.951546 -128.212341 382.234833
[Bip01_Head]
6 213.442810 185.719727 11.723573 4.962490 2.797846 -43.898743 283.173248
7 213.442535 185.720596 11.712893 4.966726 3.199373 -43.890873 283.173187
[eye_left_bone]
6 -24.626970 125.451866 -64.772606 0.000000 -90.000000 -99.840431 143.318359
7 -24.626970 125.451866 -64.772606 0.000000 -90.000000 -99.840431 143.318359
[eye_right_bone]
6 -24.626970 125.451866 64.327362 0.000000 -89.965736 80.156380 143.117676
7 -24.626970 125.451866 64.327362 0.000000 -89.965736 80.156380 143.117676
[L_forearm]
6 322.776093 0.000000 -0.000119 0.000119 -0.002344 -95.807457 322.776093
7 322.776093 0.000000 -0.000119 0.000119 -0.002344 -95.827461 322.776093
[L_front_hand]
6 241.149185 -0.042021 -3.300071 -178.667953 -1.835447 -27.422350 241.171753
7 241.149185 -0.042021 -3.300071 -178.622345 -1.834503 -27.423195 241.171753
[L_weapon_bone]
6 156.183838 0.000000 0.000000 0.000014 0.000007 0.000001 156.183838
7 156.183838 0.000000 0.000000 0.000014 0.000007 0.000001 156.183838
[L_front_hand01_01]
6 86.095154 20.947098 -0.655860 -0.366594 -0.477154 75.385574 88.609184
7 86.095154 20.947098 -0.655860 -0.366594 -0.477154 75.385574 88.609184
[L_front_hand02_01]
6 86.935165 -11.437475 24.513514 154.399796 -59.883835 -61.369587 91.046425
7 86.935165 -11.437475 24.513514 154.399796 -59.883835 -61.369587 91.046425
[L_front_hand03_01]
6 86.637497 -14.123976 -20.424902 -153.913849 58.118122 -62.702866 90.126129
7 86.637497 -14.123976 -20.424902 -153.913849 58.118122 -62.702866 90.126129
[L_front_hand01_02]
6 71.020905 -0.000179 0.000030 0.000320 -0.002325 -105.689751 71.020905
7 71.020905 -0.000179 0.000030 0.000319 -0.002325 -105.644562 71.020905
[L_front_hand02_02]
6 71.020927 -0.000119 0.000060 0.000320 -0.002325 -105.689751 71.020927
7 71.020927 -0.000119 0.000060 0.000319 -0.002325 -105.644562 71.020927
[L_front_hand03_02]
6 71.020905 -0.000060 0.000060 0.000320 -0.002325 -105.689751 71.020905
7 71.020905 -0.000060 0.000060 0.000319 -0.002325 -105.644562 71.020905
[R_forearm]
6 322.776428 -0.000060 0.000030 0.209504 0.012586 -94.339050 322.776428
7 322.776428 -0.000060 0.000030 0.209502 0.012623 -94.359283 322.776428
[R_front_hand]
6 238.847015 -0.006795 2.210259 -2.635298 -10.645461 -26.312506 238.857239
7 238.847015 -0.006795 2.210259 -2.369877 -10.644234 -26.315470 238.857239
[R_weapon_bone]
6 155.664093 0.002503 -0.000030 0.003487 0.001180 -90.988930 155.664078
7 155.664093 0.002503 -0.000030 0.003487 0.001180 -90.988930 155.664078
[R_front_hand01_01]
6 87.624611 14.231146 22.918642 -154.633514 -59.950634 61.746063 91.683487
7 87.624611 14.231146 22.918642 -154.633499 -59.950619 61.746044 91.683487
[R_front_hand02_01]
6 89.356956 14.367283 -19.491137 154.602661 58.302849 63.744389 92.579636
7 89.356956 14.367283 -19.491137 154.602661 58.302849 63.744389 92.579636
[R_front_hand03_01]
6 87.286232 -22.307278 -0.143439 0.162155 -0.423168 -75.767921 90.091743
7 87.286232 -22.307278 -0.143439 0.162155 -0.423168 -75.767921 90.091743
[R_front_hand01_02]
6 71.020905 0.000060 0.000119 0.002323 -0.000334 106.381714 71.020905
7 71.020905 0.000060 0.000119 0.002323 -0.000334 106.381714 71.020905
[R_front_hand02_02]
6 71.020844 -0.000030 -0.000119 0.002323 -0.000334 106.381714 71.020836
7 71.020844 -0.000030 -0.000119 0.002323 -0.000334 106.381714 71.020836
[R_front_hand03_02]
6 71.020905 0.000000 0.000030 0.002323 -0.000334 106.381714 71.020905
7 71.020905 0.000000 0.000030 0.002323 -0.000334 106.381714 71.020905
[null_rope01_connect]
6 328.732483 0.000000 -0.000238 -153.686615 -51.776436 -178.423508 328.732483
7 328.732483 0.000000 -0.000238 -152.155319 -61.982944 179.887756 328.732483
[Rope1_Seg01]
6 0.000038 -0.000106 0.000134 136.512421 45.579906 173.935715 0.000176
7 0.000038 -0.000120 0.000131 142.046234 52.593475 174.980865 0.000181
[Rope1_Seg02]
6 139.999863 -0.000179 0.000000 1.342172 -11.291539 6.677095 139.999863
7 139.999863 -0.000179 0.000000 2.169013 -11.412491 5.096052 139.999863
[Rope1_Seg03]
6 139.999924 0.000060 -0.000060 -9.027767 -36.552708 26.846447 139.999924
7 139.999924 0.000060 -0.000060 -2.183026 -28.790941 15.068579 139.999924
[Rope1_Seg04]
6 139.999924 -0.000060 -0.000119 -36.082497 -40.240147 31.187878 139.999924
7 139.999924 -0.000060 -0.000119 -21.740915 -40.870808 24.062311 139.999924
[Rope1_Seg05]
6 139.999832 0.000119 -0.000060 -24.417221 -11.889770 4.180190 139.999832
7 139.999832 0.000119 -0.000060 -5.989119 -11.234893 8.245522 139.999832
[Rope1_Seg06]
6 139.999954 0.000119 -0.000060 -20.993345 -5.579944 -0.061456 139.999954
7 139.999954 0.000119 -0.000060 3.476737 -2.629885 5.259053 139.999954
[Rope1_Seg07]
6 139.999985 0.000060 0.000000 -16.984505 -3.016623 -1.623827 139.999985
7 139.999985 0.000060 0.000000 -1.856023 -3.045608 2.490589 139.999985
[Rope1_Seg09]
6 121.602913 0.000119 -0.000089 -89.793175 -1.359789 0.847147 121.602913
7 121.602913 0.000119 -0.000089 -89.793175 -1.359789 0.847147 121.602913
[L_mid_hand01]
6 103.859421 1.038730 8.195221 130.544373 -67.584534 -38.866943 104.187431
7 103.859421 1.038730 8.195221 129.242477 -66.931091 -37.458961 104.187431
[L_mid_hand02]
6 105.572853 -4.139662 -10.864139 -168.923172 43.409309 -73.498886 106.211075
7 105.572853 -4.139662 -10.864139 -168.136536 43.236561 -72.353096 106.211075
[L_mid_hand03]
6 104.641464 17.579376 -3.913581 -6.012627 17.808174 74.893669 106.179977
7 104.641464 17.579376 -3.913581 -6.285014 17.719219 74.000862 106.179977
[null_rope02_connect]
6 328.732849 0.000179 -0.000119 -130.900665 60.202034 11.034309 328.732849
7 328.732849 0.000179 -0.000119 -126.509254 66.642075 22.735508 328.732849
[Rope2_Seg01]
6 0.000043 0.000134 0.000000 -88.613785 39.948467 -5.747130 0.000141
7 0.000044 0.000131 0.000000 -103.019249 53.173515 -6.772650 0.000138
[Rope2_Seg02]
6 139.999741 -0.000060 -0.000119 -0.161882 -9.202240 4.004691 139.999756
7 139.999741 -0.000060 -0.000119 1.836885 -8.545615 1.327671 139.999756
[Rope2_Seg03]
6 140.000107 0.000030 0.000000 -5.900095 -33.774376 18.417068 140.000107
7 140.000107 0.000030 0.000000 2.322207 -18.545656 2.519807 140.000107
[Rope2_Seg04]
6 139.999802 0.000000 -0.000060 -16.776417 -51.016956 36.734119 139.999802
7 139.999802 0.000000 -0.000060 -4.281981 -42.165192 10.370147 139.999802
[Rope2_Seg05]
6 139.999985 -0.000060 0.000119 -20.825253 -20.469542 2.888215 139.999985
7 139.999985 -0.000060 0.000119 -1.144800 -32.530933 21.754065 139.999985
[Rope2_Seg06]
6 139.999893 -0.000030 -0.000119 -31.897598 -8.083609 -2.996640 139.999893
7 139.999893 -0.000030 -0.000119 3.897127 -7.220143 5.097829 139.999893
[Rope2_Seg07]
6 139.999893 0.000060 -0.000060 -20.618303 -2.900806 -2.714303 139.999893
7 139.999893 0.000060 -0.000060 2.645712 -3.105339 2.325346 139.999893
[Rope2_Seg09]
6 121.338966 0.000089 -0.000060 33.793236 -1.359788 -0.847141 121.338966
7 121.338966 0.000089 -0.000060 33.793236 -1.359788 -0.847141 121.338966
[R_mid_hand01]
6 104.680779 11.144459 -10.335981 -16.212063 45.237247 70.462852 105.778534
7 104.680779 11.144459 -10.335981 -16.562792 45.133286 69.965408 105.778534
[R_mid_hand02]
6 104.070427 2.443552 8.231699 49.067368 -67.749771 39.286453 104.424065
7 104.070427 2.443552 8.231699 49.649654 -67.470848 38.658398 104.424065
[R_mid_hand03]
6 106.028137 -11.221827 -5.996406 -177.101105 15.551026 -76.585571 106.788818
7 106.028137 -11.221827 -5.996406 -176.996689 15.531745 -76.202309 106.788818
[spine02]
6 129.756927 0.001550 0.000119 -1.023899 -3.926965 6.770993 129.756927
7 129.756927 0.001550 0.000119 -1.022879 -3.927230 6.741220 129.756927
[spine03]
6 78.614044 0.081751 -4.898992 1.040681 4.146420 4.212376 78.766579
7 78.614044 0.081744 -4.898993 1.041398 4.146240 4.232207 78.766579
[pelvis]
6 169.435242 0.051022 0.000000 0.019518 -0.190233 -10.721436 169.435257
7 169.435242 0.051022 0.000000 0.019452 -0.190240 -10.681697 169.435257
[null_rope03_connect]
6 -1.257226 -2.466202 137.391083 -153.478806 -88.055794 -134.426041 137.418976
7 -1.257226 -2.466202 137.391083 -148.761215 -87.490486 -137.884811 137.418976
[null_rope04_connect]
6 -1.259640 -2.480268 -137.844437 -153.478806 -88.055794 -134.426041 137.872513
7 -1.259640 -2.480268 -137.844437 -148.761215 -87.490486 -137.884811 137.872513
[Rope3_Seg01]
6 0.000067 -0.000106 0.000000 -143.346146 -36.148029 -60.300442 0.000126
7 0.000065 -0.000120 0.000000 -142.589676 -50.420486 -69.369781 0.000137
[Rope3_Seg02]
6 139.999924 -0.000119 0.000060 -5.476924 6.856853 -8.871115 139.999924
7 139.999924 -0.000119 0.000060 -0.353377 -3.430459 -8.173638 139.999924
[Rope3_Seg03]
6 139.999924 -0.000119 0.000119 -2.414036 1.064487 -6.217422 139.999924
7 139.999924 -0.000119 0.000119 2.098028 -7.645562 -7.426077 139.999924
[Rope3_Seg04]
6 139.999924 0.000119 0.000000 -2.561357 1.832145 -4.260521 139.999924
7 139.999924 0.000119 0.000000 6.194055 -10.564904 -5.527204 139.999924
[Rope3_Seg05]
6 139.999924 -0.000238 0.000060 -8.392506 18.015284 -1.416381 139.999924
7 139.999924 -0.000238 0.000060 -19.051430 18.136339 -7.951647 139.999924
[Rope3_Seg06]
6 139.999893 -0.000119 -0.000060 -3.542171 20.294115 2.836417 139.999893
7 139.999893 -0.000119 -0.000060 -13.421043 36.366558 1.638182 139.999893
[Rope3_Seg07]
6 139.999771 0.000060 -0.000119 -0.124115 9.108578 1.410759 139.999771
7 139.999771 0.000060 -0.000119 -0.691691 13.430257 3.207451 139.999771
[Rope3_Seg08]
6 139.999985 -0.000060 0.000000 0.482460 5.104136 0.790518 139.999985
7 139.999985 -0.000060 0.000000 0.461271 6.230761 1.527587 139.999985
[Rope3_Seg09]
6 90.185997 -0.000179 -0.000060 89.793228 -1.359877 -0.847183 90.185997
7 90.185997 -0.000179 -0.000060 89.793228 -1.359877 -0.847183 90.185997
[R_rear_hand01]
6 103.366196 -6.073594 -10.757982 -177.714203 24.565960 -73.910950 104.101845
7 103.366196 -6.073594 -10.757982 -177.501556 24.545221 -73.407959 104.101845
[R_rear_hand02]
6 100.509819 12.039542 -7.992327 -12.874829 36.868488 72.167213 101.543350
7 100.509819 12.039542 -7.992327 -13.210595 36.766563 71.607780 101.543350
[R_rear_hand03]
6 101.539970 5.215704 5.435467 71.484581 -71.816628 21.513813 101.819031
7 101.539970 5.215704 5.435467 71.918968 -71.383453 21.055584 101.819031
[Rope4_Seg01]
6 -0.000010 -0.000039 -0.000134 78.612877 -46.106976 -136.470490 0.000140
7 -0.000010 -0.000054 -0.000131 76.503220 -47.445385 -132.762436 0.000142
[Rope4_Seg02]
6 139.999985 0.000060 0.000119 2.870710 0.184195 4.766898 139.999985
7 139.999985 0.000060 0.000119 3.011974 -3.238438 3.668791 139.999985
[Rope4_Seg03]
6 139.999924 0.000000 -0.000238 -0.413842 -3.956792 -2.730816 139.999924
7 139.999924 0.000000 -0.000238 -1.080588 -5.891067 -4.683575 139.999924
[Rope4_Seg04]
6 139.999985 0.000000 0.000119 6.022483 5.135006 12.355927 139.999985
7 139.999985 0.000000 0.000119 6.922230 0.615711 10.134970 139.999985
[Rope4_Seg05]
6 139.999802 -0.000060 -0.000119 5.726644 12.846081 19.366732 139.999802
7 139.999802 -0.000060 -0.000119 10.949817 11.776422 27.671816 139.999802
[Rope4_Seg06]
6 139.999924 0.000000 0.000060 0.545421 4.387482 5.781094 139.999924
7 139.999924 0.000000 0.000060 1.430889 6.310926 10.467598 139.999924
[Rope4_Seg07]
6 139.999802 0.000000 0.000000 0.159290 2.352530 3.097018 139.999802
7 139.999802 0.000000 0.000000 0.201454 3.240618 5.308220 139.999802
[Rope4_Seg08]
6 139.999924 0.000000 0.000119 -1.500888 1.355667 1.779536 139.999924
7 139.999924 0.000000 0.000119 -1.589506 1.809098 2.954860 139.999924
[Rope4_Seg09]
6 90.185791 0.000060 0.000060 -135.617828 2.228885 0.850567 90.185791
7 90.185791 0.000060 0.000060 -135.617828 2.228885 0.850567 90.185791
[L_rear_hand01]
6 101.696655 -8.392275 -7.654577 -12.874829 -36.868488 107.832764 102.329041
7 101.696655 -8.392275 -7.654577 -14.225129 -36.428967 110.098549 102.329041
[L_rear_hand02]
6 102.726799 -1.568258 5.773216 71.484581 71.816628 158.486160 102.900848
7 102.726799 -1.568258 5.773216 73.119141 70.038223 160.218079 102.900848
[L_rear_hand03]
6 104.552910 9.721220 -10.420293 -177.714203 -24.565960 -106.089035 105.519653
7 104.552910 9.721220 -10.420293 -176.859985 -24.478331 -108.136047 105.519653
